<svg xmlns="http://www.w3.org/2000/svg" viewBox="0 0 16 16">
  <style>
    :root { color: #000; }
    @media (prefers-color-scheme: dark) { :root { color: #fff; } }
  </style>

  <path fill="currentColor" fill-rule="evenodd" clip-rule="evenodd"
    d="M11.996 0.477206C9.6163-0.163732 7.10889-0.159624 4.73131 0.489107C4.52277 0.546008 4.31615 0.607799 4.1136 0.683706C2.57354 1.26441 1.29668 2.48202 0.684007 4.10504C0.60861 4.30478 0.546516 4.50843 0.490353 4.71428C-0.159077 7.09458-0.16309 9.61668 0.472522 12.0007C0.551564 12.2957 0.655517 12.5774 0.781509 12.844C0.939713 13.1789 1.13267 13.4901 1.35469 13.7745C1.99697 14.5994 2.90347 15.2295 3.99114 15.5209C6.37083 16.1618 8.87825 16.1577 11.2558 15.509L11.3252 15.4901C12.509 15.1729 13.5113 14.5162 14.2552 13.6528C14.6602 13.1847 14.9954 12.647 15.2401 12.0519C15.3356 11.8198 15.4784 11.3473 15.5451 11.0985C16.1597 8.7695 16.1492 6.31966 15.5148 3.99603C15.4722 3.83692 15.4223 3.68169 15.3656 3.5306C14.8733 2.22605 13.8408 1.14488 12.4647 0.627613C12.3126 0.570433 12.1562 0.520144 11.996 0.477206ZM14.6048 7.72607L14.6108 7.71561C15.6837 5.85739 15.3242 3.56527 13.875 2.11765C12.4274 0.668002 10.135 0.308327 8.27652 1.3813C5.40992 3.02629 3.02401 5.41578 1.37671 8.28105C0.308489 10.1313 0.660261 12.4117 2.09389 13.8603C3.54038 15.3256 5.84458 15.693 7.71102 14.6154C10.5667 12.9698 12.9532 10.5783 14.6048 7.72607Z"
  />
</svg>
