<svg width="20" height="20" viewBox="0 0 20 20" fill="none" xmlns="http://www.w3.org/2000/svg">
<path d="M6 9C6 7.34315 7.34315 6 9 6H11C12.6569 6 14 7.34315 14 9V11C14 12.6569 12.6569 14 11 14H9C7.34315 14 6 12.6569 6 11V9Z" fill="#AF52DE"/>
<path fill-rule="evenodd" clip-rule="evenodd" d="M2 9C2 5.70017 2 4.05025 3.02513 3.02513C4.05025 2 5.70017 2 9 2H11C14.2998 2 15.9497 2 16.9749 3.02513C18 4.05025 18 5.70017 18 9V11C18 14.2998 18 15.9497 16.9749 16.9749C15.9497 18 14.2998 18 11 18H9C5.70017 18 4.05025 18 3.02513 16.9749C2 15.9497 2 14.2998 2 11V9ZM7.87913 4.87913C9.05071 3.70756 10.9497 3.70756 12.1213 4.87913L15.1213 7.87913C16.2927 9.05072 16.2928 10.9498 15.1213 12.1213L12.1213 15.1213C10.9498 16.2928 9.05072 16.2927 7.87913 15.1213L4.87913 12.1213C3.70756 10.9497 3.70756 9.05071 4.87913 7.87913L7.87913 4.87913ZM11 6H9C7.34315 6 6 7.34315 6 9V11C6 12.6569 7.34315 14 9 14H11C12.6569 14 14 12.6569 14 11V9C14 7.34315 12.6569 6 11 6ZM14.5 4.75C14.5 5.16421 14.8358 5.5 15.25 5.5C15.6642 5.5 16 5.16421 16 4.75C16 4.33579 15.6642 4 15.25 4C14.8358 4 14.5 4.33579 14.5 4.75Z" fill="#AF52DE"/>
</svg>
