<svg width="20" height="20" viewBox="0 0 20 20" fill="none" xmlns="http://www.w3.org/2000/svg">
<path fill-rule="evenodd" clip-rule="evenodd" d="M3.02513 3.02513C2 4.05025 2 5.70017 2 9V11C2 14.2998 2 15.9497 3.02513 16.9749C4.05025 18 5.70017 18 9 18H11C14.2998 18 15.9497 18 16.9749 16.9749C18 15.9497 18 14.2998 18 11V9C18 5.70017 18 4.05025 16.9749 3.02513C15.9497 2 14.2998 2 11 2H9C5.70017 2 4.05025 2 3.02513 3.02513ZM14.4837 5.90466L11.8038 15.3731C11.7491 15.5371 11.5195 15.5439 11.4553 15.3833L10.1568 11.9183C10.057 11.6521 10.0752 11.356 10.2069 11.1041L11.6429 8.35714L8.89588 9.79306C8.64396 9.92475 8.34789 9.943 8.08171 9.84324L4.6167 8.54472C4.45613 8.48049 4.46288 8.25092 4.62695 8.19623L14.0953 5.51629C14.3354 5.43628 14.5637 5.66463 14.4837 5.90466Z" fill="#AF52DE"/>
</svg>
