<svg xmlns="http://www.w3.org/2000/svg" viewBox="0 0 20 20">
  <path
    fill-rule="evenodd"
    clip-rule="evenodd"
    d="M3.02513 3.02513C2 4.05025 2 5.70017 2 9V11C2 14.2998 2 15.9497 3.02513 16.9749C4.05025 18 5.70017 18 9 18H11C14.2998 18 15.9497 18 16.9749 16.9749C18 15.9497 18 14.2998 18 11V9C18 5.70017 18 4.05025 16.9749 3.02513C15.9497 2 14.2998 2 11 2H9C5.70017 2 4.05025 2 3.02513 3.02513ZM9.99316 13C10.5491 13 11 12.5491 11 11.9932V11.0391C11.6615 11.0969 12.1067 11.2194 12.4004 11.4062C12.7062 11.6008 13 11.9643 13 13H15C15 11.7214 14.6516 10.6933 13.8516 10C14.6516 9.30668 15 8.27858 15 7H13C13 8.03568 12.7062 8.39917 12.4004 8.59375C12.1067 8.78057 11.6614 8.90214 11 8.95996V7H9V10.8271C7.8358 10.4171 7.00008 9.31126 7 8.00684V7H5V8.00684C5.0001 10.7644 7.23556 12.9999 9.99316 13Z"
    fill="currentColor"
  />
</svg>
